<mxfile host="app.diagrams.net" modified="2024-05-04T06:15:04.249Z" agent="Mozilla/5.0 (Windows NT 10.0; Win64; x64) AppleWebKit/537.36 (KHTML, like Gecko) Chrome/124.0.0.0 Safari/537.36" etag="OuYwrGVeBqY8ctqHMwLy" version="24.3.1" type="device">
  <diagram name="Page-1" id="xLCk5NJZpGxzQVCu6BOC">
    <mxGraphModel dx="1050" dy="1630" grid="1" gridSize="10" guides="1" tooltips="1" connect="1" arrows="1" fold="1" page="1" pageScale="1" pageWidth="850" pageHeight="1100" math="0" shadow="0">
      <root>
        <mxCell id="0" />
        <mxCell id="1" parent="0" />
        <mxCell id="_1GHirhnAOrZHXONJtAr-3" value="&quot;Arial+Black+16&quot; (key) : CharacterProperties&amp;nbsp;" style="swimlane;fontStyle=1;align=center;verticalAlign=middle;childLayout=stackLayout;horizontal=1;startSize=29;horizontalStack=0;resizeParent=1;resizeParentMax=0;resizeLast=0;collapsible=0;marginBottom=0;html=1;whiteSpace=wrap;" parent="1" vertex="1">
          <mxGeometry x="80" y="219" width="250" height="89" as="geometry" />
        </mxCell>
        <mxCell id="_1GHirhnAOrZHXONJtAr-6" value="font = &quot;Arial&quot;&lt;br&gt;color= &quot;Black&quot;&lt;br&gt;size = 16" style="text;html=1;align=center;verticalAlign=middle;resizable=0;points=[];autosize=1;fillColor=#f8cecc;strokeColor=#b85450;" parent="_1GHirhnAOrZHXONJtAr-3" vertex="1">
          <mxGeometry y="29" width="250" height="60" as="geometry" />
        </mxCell>
        <mxCell id="_1GHirhnAOrZHXONJtAr-10" value="&quot;Arial+Black+14&quot; (key) : CharacterProperties&amp;nbsp;" style="swimlane;fontStyle=1;align=center;verticalAlign=middle;childLayout=stackLayout;horizontal=1;startSize=29;horizontalStack=0;resizeParent=1;resizeParentMax=0;resizeLast=0;collapsible=0;marginBottom=0;html=1;whiteSpace=wrap;" parent="1" vertex="1">
          <mxGeometry x="80" y="350" width="250" height="89" as="geometry" />
        </mxCell>
        <mxCell id="_1GHirhnAOrZHXONJtAr-11" value="font = &quot;Arial&quot;&lt;br&gt;color= &quot;Black&quot;&lt;br&gt;size = 14" style="text;html=1;align=center;verticalAlign=middle;resizable=0;points=[];autosize=1;fillColor=#cdeb8b;strokeColor=#36393d;" parent="_1GHirhnAOrZHXONJtAr-10" vertex="1">
          <mxGeometry y="29" width="250" height="60" as="geometry" />
        </mxCell>
        <mxCell id="_1GHirhnAOrZHXONJtAr-22" value="&quot;Verdana+Blue+18&quot; (key) : CharacterProperties&amp;nbsp;" style="swimlane;fontStyle=1;align=center;verticalAlign=middle;childLayout=stackLayout;horizontal=1;startSize=29;horizontalStack=0;resizeParent=1;resizeParentMax=0;resizeLast=0;collapsible=0;marginBottom=0;html=1;whiteSpace=wrap;" parent="1" vertex="1">
          <mxGeometry x="30" y="870" width="240" height="89" as="geometry" />
        </mxCell>
        <mxCell id="_1GHirhnAOrZHXONJtAr-23" value="font = &quot;Verdana&quot;&lt;br&gt;color= &quot;Blue&quot;&lt;br&gt;size = 18" style="text;html=1;align=center;verticalAlign=middle;resizable=0;points=[];autosize=1;fillColor=#ffcc99;strokeColor=#36393d;" parent="_1GHirhnAOrZHXONJtAr-22" vertex="1">
          <mxGeometry y="29" width="240" height="60" as="geometry" />
        </mxCell>
        <mxCell id="_1GHirhnAOrZHXONJtAr-27" value="&quot;Verdana+Red+12&quot; (key) : CharacterProperties&amp;nbsp;" style="swimlane;fontStyle=1;align=center;verticalAlign=middle;childLayout=stackLayout;horizontal=1;startSize=29;horizontalStack=0;resizeParent=1;resizeParentMax=0;resizeLast=0;collapsible=0;marginBottom=0;html=1;whiteSpace=wrap;" parent="1" vertex="1">
          <mxGeometry x="30" y="1120" width="240" height="89" as="geometry" />
        </mxCell>
        <mxCell id="_1GHirhnAOrZHXONJtAr-28" value="font = &quot;Verdana&quot;&lt;br&gt;color= &quot;Red&quot;&lt;br&gt;size = 12" style="text;html=1;align=center;verticalAlign=middle;resizable=0;points=[];autosize=1;fillColor=#ffff88;strokeColor=#36393d;" parent="_1GHirhnAOrZHXONJtAr-27" vertex="1">
          <mxGeometry y="29" width="240" height="60" as="geometry" />
        </mxCell>
        <mxCell id="_1GHirhnAOrZHXONJtAr-148" style="edgeStyle=orthogonalEdgeStyle;rounded=0;orthogonalLoop=1;jettySize=auto;html=1;exitX=0;exitY=0.5;exitDx=0;exitDy=0;entryX=1;entryY=0.5;entryDx=0;entryDy=0;" parent="1" source="_1GHirhnAOrZHXONJtAr-34" target="_1GHirhnAOrZHXONJtAr-146" edge="1">
          <mxGeometry relative="1" as="geometry">
            <mxPoint x="350" y="130" as="targetPoint" />
          </mxGeometry>
        </mxCell>
        <mxCell id="_1GHirhnAOrZHXONJtAr-34" value="characters[0] : Character" style="swimlane;fontStyle=1;align=center;verticalAlign=middle;childLayout=stackLayout;horizontal=1;startSize=29;horizontalStack=0;resizeParent=1;resizeParentMax=0;resizeLast=0;collapsible=0;marginBottom=0;html=1;whiteSpace=wrap;" parent="1" vertex="1">
          <mxGeometry x="770" y="-10" width="280" height="69" as="geometry" />
        </mxCell>
        <mxCell id="_1GHirhnAOrZHXONJtAr-35" value="character= &#39;H&#39;&lt;br&gt;characterProperty =&amp;nbsp;flyweights[&#39;Calibri+Blue+99&#39;]" style="text;html=1;align=center;verticalAlign=middle;resizable=0;points=[];autosize=1;fillColor=#cce5ff;strokeColor=#36393d;" parent="_1GHirhnAOrZHXONJtAr-34" vertex="1">
          <mxGeometry y="29" width="280" height="40" as="geometry" />
        </mxCell>
        <mxCell id="_1GHirhnAOrZHXONJtAr-136" style="edgeStyle=orthogonalEdgeStyle;rounded=0;orthogonalLoop=1;jettySize=auto;html=1;entryX=1;entryY=0.5;entryDx=0;entryDy=0;" parent="1" source="_1GHirhnAOrZHXONJtAr-36" target="_1GHirhnAOrZHXONJtAr-10" edge="1">
          <mxGeometry relative="1" as="geometry" />
        </mxCell>
        <mxCell id="_1GHirhnAOrZHXONJtAr-36" value="characters[1] : Character" style="swimlane;fontStyle=1;align=center;verticalAlign=middle;childLayout=stackLayout;horizontal=1;startSize=29;horizontalStack=0;resizeParent=1;resizeParentMax=0;resizeLast=0;collapsible=0;marginBottom=0;html=1;whiteSpace=wrap;" parent="1" vertex="1">
          <mxGeometry x="770" y="80" width="280" height="69" as="geometry" />
        </mxCell>
        <mxCell id="_1GHirhnAOrZHXONJtAr-37" value="character= &#39;e&#39;&lt;br&gt;characterProperty =&amp;nbsp;flyweights[&#39;Arial+Black+14&#39;]" style="text;html=1;align=center;verticalAlign=middle;resizable=0;points=[];autosize=1;fillColor=#cdeb8b;strokeColor=#36393d;" parent="_1GHirhnAOrZHXONJtAr-36" vertex="1">
          <mxGeometry y="29" width="280" height="40" as="geometry" />
        </mxCell>
        <mxCell id="_1GHirhnAOrZHXONJtAr-137" style="edgeStyle=orthogonalEdgeStyle;rounded=0;orthogonalLoop=1;jettySize=auto;html=1;entryX=1;entryY=0.5;entryDx=0;entryDy=0;" parent="1" source="_1GHirhnAOrZHXONJtAr-38" target="_1GHirhnAOrZHXONJtAr-10" edge="1">
          <mxGeometry relative="1" as="geometry" />
        </mxCell>
        <mxCell id="_1GHirhnAOrZHXONJtAr-38" value="characters[2] : Character" style="swimlane;fontStyle=1;align=center;verticalAlign=middle;childLayout=stackLayout;horizontal=1;startSize=29;horizontalStack=0;resizeParent=1;resizeParentMax=0;resizeLast=0;collapsible=0;marginBottom=0;html=1;whiteSpace=wrap;" parent="1" vertex="1">
          <mxGeometry x="770" y="160" width="280" height="69" as="geometry" />
        </mxCell>
        <mxCell id="_1GHirhnAOrZHXONJtAr-39" value="character= &#39;l&#39;&lt;br&gt;characterProperty =&amp;nbsp;flyweights[&#39;Arial+Black+14&#39;]" style="text;html=1;align=center;verticalAlign=middle;resizable=0;points=[];autosize=1;fillColor=#cdeb8b;strokeColor=#36393d;" parent="_1GHirhnAOrZHXONJtAr-38" vertex="1">
          <mxGeometry y="29" width="280" height="40" as="geometry" />
        </mxCell>
        <mxCell id="_1GHirhnAOrZHXONJtAr-138" style="edgeStyle=orthogonalEdgeStyle;rounded=0;orthogonalLoop=1;jettySize=auto;html=1;entryX=0.998;entryY=0.287;entryDx=0;entryDy=0;entryPerimeter=0;" parent="1" source="_1GHirhnAOrZHXONJtAr-40" target="_1GHirhnAOrZHXONJtAr-11" edge="1">
          <mxGeometry relative="1" as="geometry" />
        </mxCell>
        <mxCell id="_1GHirhnAOrZHXONJtAr-40" value="characters[3] : Character" style="swimlane;fontStyle=1;align=center;verticalAlign=middle;childLayout=stackLayout;horizontal=1;startSize=29;horizontalStack=0;resizeParent=1;resizeParentMax=0;resizeLast=0;collapsible=0;marginBottom=0;html=1;whiteSpace=wrap;" parent="1" vertex="1">
          <mxGeometry x="770" y="239" width="280" height="69" as="geometry" />
        </mxCell>
        <mxCell id="_1GHirhnAOrZHXONJtAr-41" value="character= &#39;l&#39;&lt;br&gt;characterProperty =&amp;nbsp;flyweights[&#39;Arial+Black+14&#39;]" style="text;html=1;align=center;verticalAlign=middle;resizable=0;points=[];autosize=1;fillColor=#cdeb8b;strokeColor=#36393d;" parent="_1GHirhnAOrZHXONJtAr-40" vertex="1">
          <mxGeometry y="29" width="280" height="40" as="geometry" />
        </mxCell>
        <mxCell id="_1GHirhnAOrZHXONJtAr-141" style="edgeStyle=orthogonalEdgeStyle;rounded=0;orthogonalLoop=1;jettySize=auto;html=1;entryX=1;entryY=0.5;entryDx=0;entryDy=0;" parent="1" source="_1GHirhnAOrZHXONJtAr-43" target="_1GHirhnAOrZHXONJtAr-10" edge="1">
          <mxGeometry relative="1" as="geometry" />
        </mxCell>
        <mxCell id="_1GHirhnAOrZHXONJtAr-43" value="characters[4] : Character" style="swimlane;fontStyle=1;align=center;verticalAlign=middle;childLayout=stackLayout;horizontal=1;startSize=29;horizontalStack=0;resizeParent=1;resizeParentMax=0;resizeLast=0;collapsible=0;marginBottom=0;html=1;whiteSpace=wrap;" parent="1" vertex="1">
          <mxGeometry x="770" y="330" width="280" height="69" as="geometry" />
        </mxCell>
        <mxCell id="_1GHirhnAOrZHXONJtAr-44" value="character= &#39;o&#39;&lt;br&gt;characterProperty =&amp;nbsp;flyweights[&#39;Arial+Black+14&#39;]" style="text;html=1;align=center;verticalAlign=middle;resizable=0;points=[];autosize=1;fillColor=#cdeb8b;strokeColor=#36393d;" parent="_1GHirhnAOrZHXONJtAr-43" vertex="1">
          <mxGeometry y="29" width="280" height="40" as="geometry" />
        </mxCell>
        <mxCell id="_1GHirhnAOrZHXONJtAr-135" style="edgeStyle=orthogonalEdgeStyle;rounded=0;orthogonalLoop=1;jettySize=auto;html=1;entryX=1.002;entryY=0.284;entryDx=0;entryDy=0;entryPerimeter=0;" parent="1" source="_1GHirhnAOrZHXONJtAr-46" target="_1GHirhnAOrZHXONJtAr-147" edge="1">
          <mxGeometry relative="1" as="geometry">
            <mxPoint x="340" y="140" as="targetPoint" />
          </mxGeometry>
        </mxCell>
        <mxCell id="_1GHirhnAOrZHXONJtAr-46" value="characters[5] : Character" style="swimlane;fontStyle=1;align=center;verticalAlign=middle;childLayout=stackLayout;horizontal=1;startSize=29;horizontalStack=0;resizeParent=1;resizeParentMax=0;resizeLast=0;collapsible=0;marginBottom=0;html=1;whiteSpace=wrap;" parent="1" vertex="1">
          <mxGeometry x="767.5" y="-120" width="280" height="69" as="geometry" />
        </mxCell>
        <mxCell id="_1GHirhnAOrZHXONJtAr-47" value="character= &#39;W&#39;&lt;br&gt;characterProperty =&amp;nbsp;flyweights[&#39;Calibri+Blue+99&#39;]" style="text;html=1;align=center;verticalAlign=middle;resizable=0;points=[];autosize=1;fillColor=#cce5ff;strokeColor=#36393d;" parent="_1GHirhnAOrZHXONJtAr-46" vertex="1">
          <mxGeometry y="29" width="280" height="40" as="geometry" />
        </mxCell>
        <mxCell id="_1GHirhnAOrZHXONJtAr-49" value="characters[6] : Character" style="swimlane;fontStyle=1;align=center;verticalAlign=middle;childLayout=stackLayout;horizontal=1;startSize=29;horizontalStack=0;resizeParent=1;resizeParentMax=0;resizeLast=0;collapsible=0;marginBottom=0;html=1;whiteSpace=wrap;" parent="1" vertex="1">
          <mxGeometry x="770" y="420" width="280" height="69" as="geometry" />
        </mxCell>
        <mxCell id="_1GHirhnAOrZHXONJtAr-50" value="character= &#39;o&#39;&lt;br&gt;characterProperty =&amp;nbsp;flyweights[&#39;Arial+Black+14&#39;]" style="text;html=1;align=center;verticalAlign=middle;resizable=0;points=[];autosize=1;fillColor=#cdeb8b;strokeColor=#36393d;" parent="_1GHirhnAOrZHXONJtAr-49" vertex="1">
          <mxGeometry y="29" width="280" height="40" as="geometry" />
        </mxCell>
        <mxCell id="kpd9LWhA9OYj3ZhRl94p-16" style="edgeStyle=orthogonalEdgeStyle;rounded=0;orthogonalLoop=1;jettySize=auto;html=1;entryX=1;entryY=0.5;entryDx=0;entryDy=0;" parent="1" source="_1GHirhnAOrZHXONJtAr-51" target="_1GHirhnAOrZHXONJtAr-10" edge="1">
          <mxGeometry relative="1" as="geometry" />
        </mxCell>
        <mxCell id="_1GHirhnAOrZHXONJtAr-51" value="characters[7] : Character" style="swimlane;fontStyle=1;align=center;verticalAlign=middle;childLayout=stackLayout;horizontal=1;startSize=29;horizontalStack=0;resizeParent=1;resizeParentMax=0;resizeLast=0;collapsible=0;marginBottom=0;html=1;whiteSpace=wrap;" parent="1" vertex="1">
          <mxGeometry x="770" y="600" width="280" height="69" as="geometry" />
        </mxCell>
        <mxCell id="_1GHirhnAOrZHXONJtAr-52" value="character= &#39;r&#39;&lt;br&gt;characterProperty =&amp;nbsp;flyweights[&#39;Arial+Black+14&#39;]" style="text;html=1;align=center;verticalAlign=middle;resizable=0;points=[];autosize=1;fillColor=#cdeb8b;strokeColor=#36393d;" parent="_1GHirhnAOrZHXONJtAr-51" vertex="1">
          <mxGeometry y="29" width="280" height="40" as="geometry" />
        </mxCell>
        <mxCell id="kpd9LWhA9OYj3ZhRl94p-14" style="edgeStyle=orthogonalEdgeStyle;rounded=0;orthogonalLoop=1;jettySize=auto;html=1;entryX=1;entryY=0.5;entryDx=0;entryDy=0;" parent="1" source="_1GHirhnAOrZHXONJtAr-55" target="_1GHirhnAOrZHXONJtAr-10" edge="1">
          <mxGeometry relative="1" as="geometry" />
        </mxCell>
        <mxCell id="_1GHirhnAOrZHXONJtAr-55" value="characters[9] : Character" style="swimlane;fontStyle=1;align=center;verticalAlign=middle;childLayout=stackLayout;horizontal=1;startSize=29;horizontalStack=0;resizeParent=1;resizeParentMax=0;resizeLast=0;collapsible=0;marginBottom=0;html=1;whiteSpace=wrap;" parent="1" vertex="1">
          <mxGeometry x="770" y="690" width="280" height="69" as="geometry" />
        </mxCell>
        <mxCell id="_1GHirhnAOrZHXONJtAr-56" value="character= &#39;d&#39;&lt;br&gt;characterProperty =&amp;nbsp;flyweights[&#39;Arial+Black+14&#39;]" style="text;html=1;align=center;verticalAlign=middle;resizable=0;points=[];autosize=1;fillColor=#cdeb8b;strokeColor=#36393d;" parent="_1GHirhnAOrZHXONJtAr-55" vertex="1">
          <mxGeometry y="29" width="280" height="40" as="geometry" />
        </mxCell>
        <mxCell id="_1GHirhnAOrZHXONJtAr-57" value="characters[10] : Character" style="swimlane;fontStyle=1;align=center;verticalAlign=middle;childLayout=stackLayout;horizontal=1;startSize=29;horizontalStack=0;resizeParent=1;resizeParentMax=0;resizeLast=0;collapsible=0;marginBottom=0;html=1;whiteSpace=wrap;" parent="1" vertex="1">
          <mxGeometry x="765" y="830" width="285" height="69" as="geometry" />
        </mxCell>
        <mxCell id="_1GHirhnAOrZHXONJtAr-58" value="character= &#39;C&#39;&lt;br&gt;characterProperty =&amp;nbsp;flyweights[&#39;Verdana+Blue+18&#39;]" style="text;html=1;align=center;verticalAlign=middle;resizable=0;points=[];autosize=1;fillColor=#ffcc99;strokeColor=#36393d;" parent="_1GHirhnAOrZHXONJtAr-57" vertex="1">
          <mxGeometry y="29" width="285" height="40" as="geometry" />
        </mxCell>
        <mxCell id="_1GHirhnAOrZHXONJtAr-132" style="edgeStyle=orthogonalEdgeStyle;rounded=0;orthogonalLoop=1;jettySize=auto;html=1;entryX=1;entryY=0.5;entryDx=0;entryDy=0;" parent="1" source="_1GHirhnAOrZHXONJtAr-59" target="_1GHirhnAOrZHXONJtAr-22" edge="1">
          <mxGeometry relative="1" as="geometry" />
        </mxCell>
        <mxCell id="_1GHirhnAOrZHXONJtAr-59" value="characters[11] : Character" style="swimlane;fontStyle=1;align=center;verticalAlign=middle;childLayout=stackLayout;horizontal=1;startSize=29;horizontalStack=0;resizeParent=1;resizeParentMax=0;resizeLast=0;collapsible=0;marginBottom=0;html=1;whiteSpace=wrap;" parent="1" vertex="1">
          <mxGeometry x="765" y="941" width="285" height="69" as="geometry" />
        </mxCell>
        <mxCell id="_1GHirhnAOrZHXONJtAr-60" value="character= &#39;S&#39;&lt;br&gt;characterProperty =&amp;nbsp;flyweights[&#39;Verdana+Blue+18&#39;]" style="text;html=1;align=center;verticalAlign=middle;resizable=0;points=[];autosize=1;fillColor=#ffcc99;strokeColor=#36393d;" parent="_1GHirhnAOrZHXONJtAr-59" vertex="1">
          <mxGeometry y="29" width="285" height="40" as="geometry" />
        </mxCell>
        <mxCell id="_1GHirhnAOrZHXONJtAr-128" style="edgeStyle=orthogonalEdgeStyle;rounded=0;orthogonalLoop=1;jettySize=auto;html=1;entryX=1;entryY=0.5;entryDx=0;entryDy=0;" parent="1" source="_1GHirhnAOrZHXONJtAr-61" target="_1GHirhnAOrZHXONJtAr-27" edge="1">
          <mxGeometry relative="1" as="geometry" />
        </mxCell>
        <mxCell id="_1GHirhnAOrZHXONJtAr-61" value="characters[12] : Character" style="swimlane;fontStyle=1;align=center;verticalAlign=middle;childLayout=stackLayout;horizontal=1;startSize=29;horizontalStack=0;resizeParent=1;resizeParentMax=0;resizeLast=0;collapsible=0;marginBottom=0;html=1;whiteSpace=wrap;" parent="1" vertex="1">
          <mxGeometry x="765" y="1031" width="285" height="69" as="geometry" />
        </mxCell>
        <mxCell id="_1GHirhnAOrZHXONJtAr-62" value="character= &#39;5&#39;&lt;br&gt;characterProperty =&amp;nbsp;flyweights[&#39;Verdana+Blue+12&#39;]" style="text;html=1;align=center;verticalAlign=middle;resizable=0;points=[];autosize=1;fillColor=#ffff88;strokeColor=#36393d;" parent="_1GHirhnAOrZHXONJtAr-61" vertex="1">
          <mxGeometry y="29" width="285" height="40" as="geometry" />
        </mxCell>
        <mxCell id="_1GHirhnAOrZHXONJtAr-129" style="edgeStyle=orthogonalEdgeStyle;rounded=0;orthogonalLoop=1;jettySize=auto;html=1;exitX=0;exitY=0.5;exitDx=0;exitDy=0;entryX=1;entryY=0.5;entryDx=0;entryDy=0;" parent="1" source="_1GHirhnAOrZHXONJtAr-63" target="_1GHirhnAOrZHXONJtAr-27" edge="1">
          <mxGeometry relative="1" as="geometry" />
        </mxCell>
        <mxCell id="_1GHirhnAOrZHXONJtAr-63" value="characters[13] : Character" style="swimlane;fontStyle=1;align=center;verticalAlign=middle;childLayout=stackLayout;horizontal=1;startSize=29;horizontalStack=0;resizeParent=1;resizeParentMax=0;resizeLast=0;collapsible=0;marginBottom=0;html=1;whiteSpace=wrap;" parent="1" vertex="1">
          <mxGeometry x="765" y="1120" width="285" height="69" as="geometry" />
        </mxCell>
        <mxCell id="_1GHirhnAOrZHXONJtAr-64" value="character= &#39;8&#39;&lt;br&gt;characterProperty =&amp;nbsp;flyweights[&#39;Verdana+Blue+12&#39;]" style="text;html=1;align=center;verticalAlign=middle;resizable=0;points=[];autosize=1;fillColor=#ffff88;strokeColor=#36393d;" parent="_1GHirhnAOrZHXONJtAr-63" vertex="1">
          <mxGeometry y="29" width="285" height="40" as="geometry" />
        </mxCell>
        <mxCell id="_1GHirhnAOrZHXONJtAr-130" style="edgeStyle=orthogonalEdgeStyle;rounded=0;orthogonalLoop=1;jettySize=auto;html=1;entryX=1;entryY=0.5;entryDx=0;entryDy=0;" parent="1" source="_1GHirhnAOrZHXONJtAr-65" target="_1GHirhnAOrZHXONJtAr-27" edge="1">
          <mxGeometry relative="1" as="geometry" />
        </mxCell>
        <mxCell id="_1GHirhnAOrZHXONJtAr-65" value="characters[14] : Character" style="swimlane;fontStyle=1;align=center;verticalAlign=middle;childLayout=stackLayout;horizontal=1;startSize=29;horizontalStack=0;resizeParent=1;resizeParentMax=0;resizeLast=0;collapsible=0;marginBottom=0;html=1;whiteSpace=wrap;" parent="1" vertex="1">
          <mxGeometry x="765" y="1209" width="285" height="69" as="geometry" />
        </mxCell>
        <mxCell id="_1GHirhnAOrZHXONJtAr-66" value="character= &#39;0&#39;&lt;br&gt;characterProperty =&amp;nbsp;flyweights[&#39;Verdana+Blue+12&#39;]" style="text;html=1;align=center;verticalAlign=middle;resizable=0;points=[];autosize=1;fillColor=#ffff88;strokeColor=#36393d;" parent="_1GHirhnAOrZHXONJtAr-65" vertex="1">
          <mxGeometry y="29" width="285" height="40" as="geometry" />
        </mxCell>
        <mxCell id="_1GHirhnAOrZHXONJtAr-131" style="edgeStyle=orthogonalEdgeStyle;rounded=0;orthogonalLoop=1;jettySize=auto;html=1;entryX=1;entryY=0.5;entryDx=0;entryDy=0;" parent="1" source="_1GHirhnAOrZHXONJtAr-67" target="_1GHirhnAOrZHXONJtAr-27" edge="1">
          <mxGeometry relative="1" as="geometry" />
        </mxCell>
        <mxCell id="_1GHirhnAOrZHXONJtAr-67" value="characters[15] : Character" style="swimlane;fontStyle=1;align=center;verticalAlign=middle;childLayout=stackLayout;horizontal=1;startSize=29;horizontalStack=0;resizeParent=1;resizeParentMax=0;resizeLast=0;collapsible=0;marginBottom=0;html=1;whiteSpace=wrap;" parent="1" vertex="1">
          <mxGeometry x="770" y="1290" width="280" height="69" as="geometry" />
        </mxCell>
        <mxCell id="_1GHirhnAOrZHXONJtAr-68" value="character= &#39;0&#39;&lt;br&gt;characterProperty =&amp;nbsp;flyweights[&#39;Verdana+Blue+12&#39;]" style="text;html=1;align=center;verticalAlign=middle;resizable=0;points=[];autosize=1;fillColor=#ffff88;strokeColor=#36393d;" parent="_1GHirhnAOrZHXONJtAr-67" vertex="1">
          <mxGeometry y="29" width="280" height="40" as="geometry" />
        </mxCell>
        <mxCell id="_1GHirhnAOrZHXONJtAr-139" style="edgeStyle=orthogonalEdgeStyle;rounded=0;orthogonalLoop=1;jettySize=auto;html=1;entryX=1;entryY=0.5;entryDx=0;entryDy=0;" parent="1" source="_1GHirhnAOrZHXONJtAr-83" target="_1GHirhnAOrZHXONJtAr-10" edge="1">
          <mxGeometry relative="1" as="geometry" />
        </mxCell>
        <mxCell id="_1GHirhnAOrZHXONJtAr-83" value="characters[8] : Character" style="swimlane;fontStyle=1;align=center;verticalAlign=middle;childLayout=stackLayout;horizontal=1;startSize=29;horizontalStack=0;resizeParent=1;resizeParentMax=0;resizeLast=0;collapsible=0;marginBottom=0;html=1;whiteSpace=wrap;" parent="1" vertex="1">
          <mxGeometry x="770" y="500" width="280" height="69" as="geometry" />
        </mxCell>
        <mxCell id="_1GHirhnAOrZHXONJtAr-84" value="character= &#39;l&#39;&lt;br&gt;characterProperty =&amp;nbsp;flyweights[&#39;Arial+Black+14&#39;]" style="text;html=1;align=center;verticalAlign=middle;resizable=0;points=[];autosize=1;fillColor=#cdeb8b;strokeColor=#36393d;" parent="_1GHirhnAOrZHXONJtAr-83" vertex="1">
          <mxGeometry y="29" width="280" height="40" as="geometry" />
        </mxCell>
        <mxCell id="_1GHirhnAOrZHXONJtAr-109" style="edgeStyle=orthogonalEdgeStyle;rounded=0;orthogonalLoop=1;jettySize=auto;html=1;entryX=1;entryY=0.5;entryDx=0;entryDy=0;" parent="1" source="_1GHirhnAOrZHXONJtAr-98" target="_1GHirhnAOrZHXONJtAr-46" edge="1">
          <mxGeometry relative="1" as="geometry" />
        </mxCell>
        <mxCell id="_1GHirhnAOrZHXONJtAr-110" style="edgeStyle=orthogonalEdgeStyle;rounded=0;orthogonalLoop=1;jettySize=auto;html=1;entryX=1;entryY=0.5;entryDx=0;entryDy=0;" parent="1" source="_1GHirhnAOrZHXONJtAr-98" target="_1GHirhnAOrZHXONJtAr-51" edge="1">
          <mxGeometry relative="1" as="geometry" />
        </mxCell>
        <mxCell id="_1GHirhnAOrZHXONJtAr-112" style="edgeStyle=orthogonalEdgeStyle;rounded=0;orthogonalLoop=1;jettySize=auto;html=1;entryX=1;entryY=0.75;entryDx=0;entryDy=0;" parent="1" source="_1GHirhnAOrZHXONJtAr-98" target="_1GHirhnAOrZHXONJtAr-57" edge="1">
          <mxGeometry relative="1" as="geometry" />
        </mxCell>
        <mxCell id="_1GHirhnAOrZHXONJtAr-113" style="edgeStyle=orthogonalEdgeStyle;rounded=0;orthogonalLoop=1;jettySize=auto;html=1;entryX=1;entryY=0.75;entryDx=0;entryDy=0;" parent="1" source="_1GHirhnAOrZHXONJtAr-98" target="_1GHirhnAOrZHXONJtAr-59" edge="1">
          <mxGeometry relative="1" as="geometry" />
        </mxCell>
        <mxCell id="_1GHirhnAOrZHXONJtAr-114" style="edgeStyle=orthogonalEdgeStyle;rounded=0;orthogonalLoop=1;jettySize=auto;html=1;entryX=1;entryY=0.5;entryDx=0;entryDy=0;" parent="1" source="_1GHirhnAOrZHXONJtAr-98" target="_1GHirhnAOrZHXONJtAr-61" edge="1">
          <mxGeometry relative="1" as="geometry" />
        </mxCell>
        <mxCell id="_1GHirhnAOrZHXONJtAr-116" style="edgeStyle=orthogonalEdgeStyle;rounded=0;orthogonalLoop=1;jettySize=auto;html=1;entryX=1;entryY=0.5;entryDx=0;entryDy=0;" parent="1" source="_1GHirhnAOrZHXONJtAr-98" target="_1GHirhnAOrZHXONJtAr-65" edge="1">
          <mxGeometry relative="1" as="geometry" />
        </mxCell>
        <mxCell id="_1GHirhnAOrZHXONJtAr-120" style="edgeStyle=orthogonalEdgeStyle;rounded=0;orthogonalLoop=1;jettySize=auto;html=1;entryX=1;entryY=0.25;entryDx=0;entryDy=0;" parent="1" source="_1GHirhnAOrZHXONJtAr-98" target="_1GHirhnAOrZHXONJtAr-40" edge="1">
          <mxGeometry relative="1" as="geometry" />
        </mxCell>
        <mxCell id="_1GHirhnAOrZHXONJtAr-122" style="edgeStyle=orthogonalEdgeStyle;rounded=0;orthogonalLoop=1;jettySize=auto;html=1;entryX=1;entryY=0.5;entryDx=0;entryDy=0;" parent="1" source="_1GHirhnAOrZHXONJtAr-98" target="_1GHirhnAOrZHXONJtAr-83" edge="1">
          <mxGeometry relative="1" as="geometry" />
        </mxCell>
        <mxCell id="_1GHirhnAOrZHXONJtAr-123" style="edgeStyle=orthogonalEdgeStyle;rounded=0;orthogonalLoop=1;jettySize=auto;html=1;entryX=1.001;entryY=0.046;entryDx=0;entryDy=0;entryPerimeter=0;" parent="1" source="_1GHirhnAOrZHXONJtAr-98" target="_1GHirhnAOrZHXONJtAr-50" edge="1">
          <mxGeometry relative="1" as="geometry" />
        </mxCell>
        <mxCell id="_1GHirhnAOrZHXONJtAr-124" style="edgeStyle=orthogonalEdgeStyle;rounded=0;orthogonalLoop=1;jettySize=auto;html=1;entryX=1;entryY=0.5;entryDx=0;entryDy=0;" parent="1" source="_1GHirhnAOrZHXONJtAr-98" target="_1GHirhnAOrZHXONJtAr-43" edge="1">
          <mxGeometry relative="1" as="geometry" />
        </mxCell>
        <mxCell id="kpd9LWhA9OYj3ZhRl94p-6" style="edgeStyle=orthogonalEdgeStyle;rounded=0;orthogonalLoop=1;jettySize=auto;html=1;exitX=0;exitY=0.5;exitDx=0;exitDy=0;entryX=1;entryY=0.5;entryDx=0;entryDy=0;" parent="1" source="_1GHirhnAOrZHXONJtAr-98" target="_1GHirhnAOrZHXONJtAr-36" edge="1">
          <mxGeometry relative="1" as="geometry" />
        </mxCell>
        <mxCell id="_1GHirhnAOrZHXONJtAr-98" value="testDocument : Document" style="swimlane;fontStyle=1;align=center;verticalAlign=middle;childLayout=stackLayout;horizontal=1;startSize=29;horizontalStack=0;resizeParent=1;resizeParentMax=0;resizeLast=0;collapsible=0;marginBottom=0;html=1;whiteSpace=wrap;" parent="1" vertex="1">
          <mxGeometry x="1320" y="710" width="300" height="69" as="geometry" />
        </mxCell>
        <mxCell id="_1GHirhnAOrZHXONJtAr-99" value="characters= [H,e,ll...]&lt;br&gt;propertiesFactory= new&amp;nbsp;CharacterPropertiesFactory()" style="text;html=1;align=center;verticalAlign=middle;resizable=0;points=[];autosize=1;fillColor=#dae8fc;strokeColor=#6c8ebf;" parent="_1GHirhnAOrZHXONJtAr-98" vertex="1">
          <mxGeometry y="29" width="300" height="40" as="geometry" />
        </mxCell>
        <mxCell id="_1GHirhnAOrZHXONJtAr-111" style="edgeStyle=orthogonalEdgeStyle;rounded=0;orthogonalLoop=1;jettySize=auto;html=1;entryX=1;entryY=0.5;entryDx=0;entryDy=0;" parent="1" source="_1GHirhnAOrZHXONJtAr-99" target="_1GHirhnAOrZHXONJtAr-55" edge="1">
          <mxGeometry relative="1" as="geometry" />
        </mxCell>
        <mxCell id="_1GHirhnAOrZHXONJtAr-119" style="edgeStyle=orthogonalEdgeStyle;rounded=0;orthogonalLoop=1;jettySize=auto;html=1;entryX=1;entryY=0.5;entryDx=0;entryDy=0;" parent="1" source="_1GHirhnAOrZHXONJtAr-99" target="_1GHirhnAOrZHXONJtAr-38" edge="1">
          <mxGeometry relative="1" as="geometry">
            <Array as="points">
              <mxPoint x="1185" y="750" />
              <mxPoint x="1185" y="195" />
            </Array>
          </mxGeometry>
        </mxCell>
        <mxCell id="_1GHirhnAOrZHXONJtAr-133" style="edgeStyle=orthogonalEdgeStyle;rounded=0;orthogonalLoop=1;jettySize=auto;html=1;entryX=1;entryY=0.5;entryDx=0;entryDy=0;" parent="1" source="_1GHirhnAOrZHXONJtAr-58" target="_1GHirhnAOrZHXONJtAr-22" edge="1">
          <mxGeometry relative="1" as="geometry" />
        </mxCell>
        <mxCell id="_1GHirhnAOrZHXONJtAr-146" value="&quot;Calibri+Blue+99&quot; (key) : CharacterProperties&amp;nbsp;" style="swimlane;fontStyle=1;align=center;verticalAlign=middle;childLayout=stackLayout;horizontal=1;startSize=29;horizontalStack=0;resizeParent=1;resizeParentMax=0;resizeLast=0;collapsible=0;marginBottom=0;html=1;whiteSpace=wrap;" parent="1" vertex="1">
          <mxGeometry x="80" y="-20" width="250" height="89" as="geometry" />
        </mxCell>
        <mxCell id="_1GHirhnAOrZHXONJtAr-147" value="font = &quot;Calibri&quot;&lt;br&gt;color= &quot;Blue&quot;&lt;br&gt;size = 99" style="text;html=1;align=center;verticalAlign=middle;resizable=0;points=[];autosize=1;fillColor=#cce5ff;strokeColor=#36393d;" parent="_1GHirhnAOrZHXONJtAr-146" vertex="1">
          <mxGeometry y="29" width="250" height="60" as="geometry" />
        </mxCell>
        <mxCell id="kpd9LWhA9OYj3ZhRl94p-7" style="edgeStyle=orthogonalEdgeStyle;rounded=0;orthogonalLoop=1;jettySize=auto;html=1;entryX=1.003;entryY=0.148;entryDx=0;entryDy=0;entryPerimeter=0;" parent="1" source="_1GHirhnAOrZHXONJtAr-98" target="_1GHirhnAOrZHXONJtAr-34" edge="1">
          <mxGeometry relative="1" as="geometry" />
        </mxCell>
        <mxCell id="kpd9LWhA9OYj3ZhRl94p-10" style="edgeStyle=orthogonalEdgeStyle;rounded=0;orthogonalLoop=1;jettySize=auto;html=1;entryX=1;entryY=0.5;entryDx=0;entryDy=0;" parent="1" source="_1GHirhnAOrZHXONJtAr-99" target="_1GHirhnAOrZHXONJtAr-67" edge="1">
          <mxGeometry relative="1" as="geometry" />
        </mxCell>
        <mxCell id="kpd9LWhA9OYj3ZhRl94p-13" style="edgeStyle=orthogonalEdgeStyle;rounded=0;orthogonalLoop=1;jettySize=auto;html=1;entryX=1.008;entryY=0.263;entryDx=0;entryDy=0;entryPerimeter=0;" parent="1" source="_1GHirhnAOrZHXONJtAr-49" target="_1GHirhnAOrZHXONJtAr-11" edge="1">
          <mxGeometry relative="1" as="geometry" />
        </mxCell>
      </root>
    </mxGraphModel>
  </diagram>
</mxfile>
